- 
http://www.Speed.Cd 
       
http://www.Speed.Cd      fast  and The Hottest Private Tracker on the net

(((--Submit for invite!!--)))

Please Seed back to make the speed Faster!!!

------------------nfo--------------------------
-[img]http://img838.imageshack.us/img838/1716/b0058o1fpc01lzzzzzzz.jpg[/img]

[color=blue][size=5][b]Inside.Out.2011.DVDRip.XVID.AC3.HQ.Hive-CM8[/b][/size][/color]


[b]Thx Hive


CM8 Doing It Right The First Time :D


Source: DVD-R

Encode:
dvd quality was just ok, had a heavy interlace, removed that, also added slightly sharpness, brightness,rgb and denoise
Dvd had lots of bonus material,nothing special except the outtakes.
They are attached as single file.
Looks like a good movie.
enjoy

Video: 720x400 @bitrate 1800 2pass
Audio: English AC3 5.1 @448
Sample: yes included
Bonus: yes 5mins outtakes[/b]


[url]http://www.imdb.com/title/tt1640486/[/url]


General
Complete name                    : Inside.Out.2011.DVDRip.XVID.AC3.HQ.Hive-CM8.avi
Format                           : AVI
Format/Info                      : Audio Video Interleave
File size                        : 1.47 GiB
Duration                         : 1h 33mn
Overall bit rate                 : 2 257 Kbps
Writing application              : Nandub v1.0rc2
Writing library                  : Nandub build 1853/release

Video
ID                               : 0
Format                           : MPEG-4 Visual
Format profile                   : Advanced Simple@L5
Format settings, BVOP            : 2
Format settings, QPel            : Yes
Format settings, GMC             : No warppoints
Format settings, Matrix          : Default (H.263)
Muxing mode                      : Packed bitstream
Codec ID                         : XVID
Codec ID/Hint                    : XviD
Duration                         : 1h 33mn
Bit rate                         : 1 800 Kbps
Width                            : 720 pixels
Height                           : 400 pixels
Display aspect ratio             : 16:9
Frame rate                       : 23.976 fps
Color space                      : YUV
Chroma subsampling               : 4:2:0
Bit depth                        : 8 bits
Scan type                        : Progressive
Compression mode                 : Lossy
Bits/(Pixel*Frame)               : 0.261
Stream size                      : 1.17 GiB (80%)
Writing library                  : XviD 1.2.1 (UTC 2008-12-04)

Audio
ID                               : 1
Format                           : AC-3
Format/Info                      : Audio Coding 3
Mode extension                   : CM (complete main)
Codec ID                         : 2000
Duration                         : 1h 33mn
Bit rate mode                    : Constant
Bit rate                         : 448 Kbps
Channel(s)                       : 6 channels
Channel positions                : Front: L C R, Side: L R, LFE
Sampling rate                    : 48.0 KHz
Bit depth                        : 16 bits
Compression mode                 : Lossy
Stream size                      : 298 MiB (20%)
Alignment                        : Split accross interleaves
Interleave, duration             : 42 ms (1.00 video frame)
Interleave, preload duration     : 500 ms


Paul Levesque	... 	Arlo Jayne
Michael Rapaport	... 	Jack Small
Parker Posey	... 	Claire Small
Michael Cudlitz	... 	Detective Calgrove


For the last thirteen years AJ (Triple H) has been behind bars, convicted of manslaughter for killing a man who intended to kill his best friend, Jack (Michael Rapaport). Now released, AJ wants nothing more than to start a small business and live a crime-free life. Unfortunately, within hours of leaving prison, his oldest and best friend, Jack (Michael Rapaport) involves AJ in an accidental shooting in which a man is killed, forcing Jack to skip town.


[img]http://img687.imageshack.us/img687/741/27048445.png[/img]
[img]http://img197.imageshack.us/img197/2369/iniininn.png[/img]
[img]http://img148.imageshack.us/img148/9467/iniinn.png[/img]
[img]http://img263.imageshack.us/img263/9980/inin.png[/img]
[img]http://img708.imageshack.us/img708/8840/iniininininn.png[/img]





Greetz

ViSiON,SiC,SANTi,3LT0N,YanKeeS,MAGNET,THC,T0XiC,LKRG,FANTASIA-PLAY,FANTASIA-M,BHRG,
D2U,WBZ,FLAWL3SS,NOVA,Vik,Rapeseed,SAFC,goldadvance,MEMORY100,scumbag,KaN1vE,Unevano,Pinnz,
Mr Hive,Wayne,cedrict wink,and all P2P groups


LOOKING FOR ANYTHING YOU WANT TO LOOK AND SOUND BETTER



CM8@hushmail.com